<?xml version="1.0" standalone="no"?>
<!DOCTYPE svg PUBLIC "-//W3C//DTD SVG 20010904//EN"
 "http://www.w3.org/TR/2001/REC-SVG-20010904/DTD/svg10.dtd">
<svg version="1.0" xmlns="http://www.w3.org/2000/svg"
 width="16.000000pt" height="16.000000pt" viewBox="0 0 16.000000 16.000000"
 preserveAspectRatio="xMidYMid meet">
<metadata>
Created by potrace 1.11, written by Peter Selinger 2001-2013
</metadata>
<g transform="translate(0.000000,16.000000) scale(0.006154,-0.006154)"
fill="#000000" stroke="none">
<path d="M640 1310 l0 -640 140 0 140 0 0 34 0 35 50 -34 c64 -43 136 -59 241
-53 175 9 304 113 361 291 28 87 28 267 0 354 -50 158 -158 255 -313 283 -112
21 -224 -3 -306 -66 l-33 -25 0 230 0 231 -140 0 -140 0 0 -640z m541 59 c85
-29 134 -119 134 -249 0 -179 -86 -274 -231 -257 -91 10 -159 98 -170 218 -19
201 110 340 267 288z"/>
<path d="M1670 835 l0 -165 150 0 150 0 0 165 0 165 -150 0 -150 0 0 -165z"/>
</g>
</svg>
